<svg width="1024" height="1024" viewBox="0 0 1024 1024" fill="none" xmlns="http://www.w3.org/2000/svg">
<g clip-path="url(#clip0_37_7)">
<path d="M512 1024C794.77 1024 1024 794.77 1024 512C1024 229.23 794.77 0 512 0C229.23 0 0 229.23 0 512C0 794.77 229.23 1024 512 1024Z" fill="#0078D7"/>
<path d="M416.145 563.827C416.145 577.072 418.123 589.113 422.166 599.95C426.466 610.615 432.056 620.161 439.195 628.504C446.334 636.847 454.676 643.985 464.481 650.006C473.942 656.026 484.263 661.015 495.272 664.885C506.195 668.841 517.633 671.766 529.244 673.658C541.027 675.55 552.466 676.496 564.077 676.496C578.698 676.496 592.288 675.378 605.189 673.056C618.09 670.647 630.647 667.465 643.032 663.423C655.417 659.381 667.372 654.564 679.327 649.06C691.368 643.555 703.581 637.535 716.138 630.826V747.452C702.119 754.332 688.357 760.095 674.596 765.083C660.835 769.9 647.074 774.114 633.055 777.468C619.036 780.908 604.845 783.489 590.309 785.037C575.774 786.585 560.895 787.445 545.414 787.445C524.772 787.445 504.818 785.037 485.639 780.306C466.459 775.576 448.484 768.781 431.626 759.837C414.769 750.892 399.374 740.055 385.355 727.326C371.249 714.597 359.294 700.234 349.232 684.323C339.169 668.411 331.428 650.952 325.838 632.202C320.419 613.453 317.667 593.499 317.667 572.341C317.667 549.722 320.763 528.22 326.956 507.664C333.234 487.022 342.093 468.273 353.79 451.071C365.401 433.87 379.592 418.561 396.364 405.23C413.135 391.899 431.97 380.976 452.956 372.547C441.517 383.986 432.572 397.489 426.294 413.228C419.843 428.882 415.801 444.621 413.995 460.36H609.919C609.919 440.579 607.941 423.377 603.899 408.584C599.856 393.791 593.406 381.492 584.375 371.773C575.43 361.968 563.905 354.572 549.714 349.755C535.523 344.853 518.408 342.359 498.368 342.359C474.716 342.359 451.064 345.799 427.412 352.937C403.76 359.818 381.312 369.709 359.983 382.18C338.653 394.823 319.043 409.702 301.154 426.731C283.264 443.933 268.213 462.424 256 482.464C258.58 459.242 263.741 436.88 270.879 415.637C278.018 394.393 287.479 374.611 298.832 356.292C310.184 338.23 323.516 321.717 338.739 306.924C353.962 292.131 370.819 279.401 389.483 269.081C408.146 258.76 427.928 250.417 449.43 244.827C470.932 239.924 493.81 237 517.892 237C531.997 237 546.016 238.29 560.035 240.784C574.054 243.365 587.729 246.805 601.06 251.277C627.55 260.394 651.202 273.123 672.016 289.292C692.83 305.634 710.289 324.211 724.48 345.455C738.672 366.699 749.423 390.179 756.819 415.723C764.216 441.267 768 467.843 768 495.451V563.827H416.145Z" fill="white"/>
</g>
<defs>
<clipPath id="clip0_37_7">
<rect width="1024" height="1024" fill="white"/>
</clipPath>
</defs>
</svg>
