<svg width="1024" height="1024" viewBox="0 0 1024 1024" fill="none" xmlns="http://www.w3.org/2000/svg">
<g clip-path="url(#clip0_37_7)">
<path d="M512 1024C794.77 1024 1024 794.77 1024 512C1024 229.23 794.77 0 512 0C229.23 0 0 229.23 0 512C0 794.77 229.23 1024 512 1024Z" fill="#262A2C"/>
<g clip-path="url(#clip1_37_7)">
<path d="M512 768C370.624 768 256 653.376 256 512C256 370.624 370.624 256 512 256C653.376 256 768 370.624 768 512C768 653.376 653.376 768 512 768ZM512 752C644.544 752 752 644.544 752 512C752 379.456 644.544 272 512 272C379.456 272 272 379.456 272 512C272 644.544 379.456 752 512 752ZM512 298.667C513.414 298.667 514.771 299.229 515.771 300.229C516.771 301.229 517.333 302.586 517.333 304V325.333C517.333 326.748 516.771 328.104 515.771 329.105C514.771 330.105 513.414 330.667 512 330.667C510.586 330.667 509.229 330.105 508.229 329.105C507.229 328.104 506.667 326.748 506.667 325.333V304C506.667 302.586 507.229 301.229 508.229 300.229C509.229 299.229 510.586 298.667 512 298.667ZM512 693.333C513.414 693.333 514.771 693.895 515.771 694.895C516.771 695.896 517.333 697.252 517.333 698.667V720C517.333 721.415 516.771 722.771 515.771 723.771C514.771 724.771 513.414 725.333 512 725.333C510.586 725.333 509.229 724.771 508.229 723.771C507.229 722.771 506.667 721.415 506.667 720V698.667C506.667 697.252 507.229 695.896 508.229 694.895C509.229 693.895 510.586 693.333 512 693.333ZM662.848 361.152C663.845 362.152 664.404 363.506 664.404 364.917C664.404 366.329 663.845 367.683 662.848 368.683L647.765 383.787C646.764 384.788 645.406 385.351 643.989 385.351C642.573 385.351 641.215 384.788 640.213 383.787C639.212 382.785 638.649 381.427 638.649 380.011C638.649 378.594 639.212 377.236 640.213 376.235L655.317 361.152C656.317 360.155 657.671 359.596 659.083 359.596C660.494 359.596 661.848 360.155 662.848 361.152ZM383.787 640.213C384.283 640.709 384.677 641.297 384.946 641.945C385.215 642.593 385.354 643.288 385.354 643.989C385.354 644.691 385.215 645.385 384.946 646.033C384.677 646.681 384.283 647.27 383.787 647.765L368.683 662.848C368.199 663.389 367.61 663.825 366.952 664.131C366.294 664.437 365.581 664.605 364.856 664.625C364.13 664.645 363.409 664.517 362.735 664.249C362.06 663.981 361.448 663.578 360.935 663.065C360.422 662.552 360.019 661.94 359.751 661.265C359.483 660.591 359.355 659.87 359.375 659.144C359.395 658.419 359.564 657.706 359.869 657.048C360.175 656.39 360.611 655.801 361.152 655.317L376.235 640.213C376.73 639.717 377.319 639.323 377.967 639.054C378.615 638.785 379.309 638.646 380.011 638.646C380.712 638.646 381.407 638.785 382.055 639.054C382.703 639.323 383.291 639.717 383.787 640.213ZM361.152 361.173C362.152 360.177 363.506 359.617 364.917 359.617C366.329 359.617 367.683 360.177 368.683 361.173L383.787 376.256C384.283 376.752 384.676 377.341 384.944 377.988C385.213 378.636 385.351 379.331 385.351 380.032C385.351 380.733 385.213 381.428 384.944 382.076C384.676 382.723 384.283 383.312 383.787 383.808C383.291 384.304 382.702 384.697 382.054 384.966C381.406 385.234 380.712 385.372 380.011 385.372C379.309 385.372 378.615 385.234 377.967 384.966C377.319 384.697 376.731 384.304 376.235 383.808L361.152 368.704C360.155 367.704 359.596 366.35 359.596 364.939C359.596 363.527 360.155 362.173 361.152 361.173ZM640.213 640.213C640.709 639.717 641.297 639.323 641.945 639.054C642.593 638.785 643.288 638.646 643.989 638.646C644.691 638.646 645.385 638.785 646.033 639.054C646.681 639.323 647.27 639.717 647.765 640.213L662.848 655.317C663.389 655.801 663.825 656.39 664.131 657.048C664.437 657.706 664.605 658.419 664.625 659.144C664.645 659.87 664.517 660.591 664.249 661.265C663.981 661.94 663.578 662.552 663.065 663.065C662.552 663.578 661.94 663.981 661.265 664.249C660.591 664.517 659.87 664.645 659.144 664.625C658.419 664.605 657.706 664.437 657.048 664.131C656.39 663.825 655.801 663.389 655.317 662.848L640.213 647.765C639.717 647.27 639.323 646.681 639.054 646.033C638.785 645.385 638.646 644.691 638.646 643.989C638.646 643.288 638.785 642.593 639.054 641.945C639.323 641.297 639.717 640.709 640.213 640.213ZM298.667 512C298.667 510.586 299.229 509.229 300.229 508.229C301.229 507.229 302.586 506.667 304 506.667H325.333C326.748 506.667 328.104 507.229 329.105 508.229C330.105 509.229 330.667 510.586 330.667 512C330.667 513.414 330.105 514.771 329.105 515.771C328.104 516.771 326.748 517.333 325.333 517.333H304C302.586 517.333 301.229 516.771 300.229 515.771C299.229 514.771 298.667 513.414 298.667 512ZM693.333 512C693.333 510.586 693.895 509.229 694.895 508.229C695.896 507.229 697.252 506.667 698.667 506.667H720C721.415 506.667 722.771 507.229 723.771 508.229C724.771 509.229 725.333 510.586 725.333 512C725.333 513.414 724.771 514.771 723.771 515.771C722.771 516.771 721.415 517.333 720 517.333H698.667C697.252 517.333 695.896 516.771 694.895 515.771C693.895 514.771 693.333 513.414 693.333 512ZM595.349 315.627C595.996 315.899 596.582 316.297 597.074 316.796C597.567 317.295 597.956 317.887 598.219 318.537C598.483 319.187 598.616 319.882 598.61 320.584C598.605 321.285 598.461 321.978 598.187 322.624L589.845 342.251C589.591 342.922 589.204 343.535 588.707 344.053C588.21 344.571 587.614 344.983 586.954 345.265C586.294 345.547 585.583 345.693 584.866 345.694C584.148 345.695 583.437 345.551 582.776 345.271C582.116 344.991 581.518 344.58 581.02 344.064C580.521 343.547 580.132 342.935 579.876 342.265C579.62 341.594 579.502 340.879 579.528 340.162C579.555 339.445 579.726 338.74 580.032 338.091L588.352 318.464C588.625 317.818 589.022 317.232 589.521 316.739C590.021 316.247 590.612 315.857 591.262 315.594C591.912 315.33 592.608 315.198 593.309 315.203C594.01 315.209 594.704 315.353 595.349 315.627ZM441.173 678.933C442.469 679.488 443.493 680.533 444.021 681.84C444.549 683.147 444.537 684.61 443.989 685.909L435.669 705.536C435.082 706.784 434.035 707.755 432.747 708.248C431.46 708.74 430.031 708.714 428.762 708.176C427.492 707.638 426.481 706.629 425.939 705.361C425.397 704.094 425.367 702.665 425.856 701.376L434.176 681.749C434.449 681.103 434.846 680.517 435.345 680.024C435.845 679.532 436.436 679.143 437.086 678.879C437.736 678.616 438.432 678.483 439.133 678.489C439.834 678.494 440.528 678.638 441.173 678.912V678.933ZM709.803 432.064C710.33 433.374 710.316 434.84 709.764 436.139C709.212 437.439 708.167 438.467 706.859 438.997L687.083 446.997C686.433 447.261 685.737 447.393 685.036 447.388C684.335 447.383 683.641 447.239 682.996 446.966C682.35 446.692 681.764 446.294 681.272 445.795C680.78 445.295 680.391 444.703 680.128 444.053C679.865 443.403 679.732 442.708 679.737 442.007C679.743 441.305 679.886 440.612 680.16 439.966C680.433 439.32 680.831 438.735 681.331 438.243C681.83 437.751 682.422 437.362 683.072 437.099L702.848 429.12C703.498 428.856 704.193 428.722 704.895 428.727C705.597 428.732 706.29 428.876 706.936 429.149C707.582 429.423 708.168 429.821 708.66 430.321C709.152 430.821 709.54 431.413 709.803 432.064ZM343.872 579.904C344.136 580.554 344.27 581.249 344.265 581.951C344.26 582.652 344.116 583.346 343.843 583.992C343.569 584.638 343.171 585.224 342.671 585.716C342.171 586.208 341.579 586.596 340.928 586.859L321.152 594.837C320.498 595.129 319.793 595.286 319.078 595.299C318.362 595.312 317.651 595.181 316.987 594.914C316.324 594.647 315.72 594.249 315.214 593.743C314.707 593.238 314.307 592.636 314.038 591.973C313.769 591.31 313.635 590.6 313.647 589.884C313.658 589.169 313.813 588.463 314.102 587.808C314.392 587.154 314.81 586.565 315.332 586.075C315.854 585.586 316.47 585.207 317.141 584.96L336.917 576.96C337.567 576.696 338.263 576.562 338.964 576.567C339.666 576.572 340.359 576.716 341.005 576.989C341.652 577.263 342.237 577.661 342.729 578.161C343.221 578.661 343.609 579.253 343.872 579.904ZM432.085 314.197C433.395 313.67 434.861 313.684 436.161 314.236C437.46 314.788 438.488 315.833 439.019 317.141L447.019 336.917C447.282 337.567 447.415 338.263 447.409 338.964C447.404 339.665 447.26 340.359 446.987 341.004C446.714 341.65 446.316 342.236 445.816 342.728C445.316 343.22 444.725 343.609 444.075 343.872C443.425 344.135 442.729 344.268 442.028 344.263C441.327 344.257 440.633 344.114 439.988 343.84C439.342 343.567 438.756 343.169 438.264 342.669C437.772 342.17 437.383 341.578 437.12 340.928L429.141 321.152C428.877 320.502 428.744 319.807 428.749 319.105C428.754 318.404 428.897 317.71 429.17 317.064C429.444 316.418 429.842 315.832 430.342 315.34C430.842 314.848 431.435 314.46 432.085 314.197ZM579.925 680.128C580.575 679.864 581.271 679.73 581.972 679.735C582.674 679.74 583.367 679.884 584.013 680.157C584.66 680.431 585.245 680.829 585.737 681.329C586.229 681.829 586.617 682.421 586.88 683.072L594.859 702.848C595.15 703.502 595.307 704.207 595.32 704.922C595.334 705.638 595.203 706.349 594.935 707.013C594.668 707.676 594.27 708.28 593.765 708.786C593.26 709.293 592.657 709.693 591.994 709.962C591.331 710.232 590.621 710.365 589.906 710.353C589.19 710.342 588.484 710.187 587.83 709.898C587.175 709.608 586.586 709.19 586.097 708.668C585.607 708.146 585.228 707.53 584.981 706.859L576.981 687.083C576.717 686.433 576.584 685.737 576.589 685.036C576.594 684.334 576.737 683.641 577.01 682.995C577.284 682.348 577.682 681.763 578.182 681.271C578.682 680.779 579.275 680.391 579.925 680.128ZM315.627 428.651C315.899 428.004 316.297 427.418 316.796 426.926C317.295 426.433 317.887 426.044 318.537 425.781C319.187 425.517 319.882 425.384 320.584 425.39C321.285 425.395 321.978 425.539 322.624 425.813L342.251 434.155C343.498 434.742 344.47 435.789 344.962 437.077C345.455 438.364 345.429 439.793 344.891 441.062C344.353 442.332 343.344 443.343 342.076 443.885C340.808 444.427 339.38 444.457 338.091 443.968L318.464 435.648C317.818 435.375 317.232 434.978 316.739 434.479C316.247 433.979 315.857 433.388 315.594 432.738C315.33 432.088 315.198 431.392 315.203 430.691C315.209 429.99 315.353 429.296 315.627 428.651ZM678.933 582.848C679.488 581.552 680.533 580.528 681.84 580.001C683.147 579.473 684.61 579.484 685.909 580.032L705.536 588.352C706.207 588.606 706.82 588.994 707.338 589.49C707.856 589.987 708.269 590.584 708.551 591.244C708.833 591.904 708.978 592.614 708.98 593.332C708.981 594.049 708.837 594.76 708.557 595.421C708.276 596.082 707.866 596.679 707.349 597.178C706.833 597.676 706.221 598.065 705.55 598.321C704.88 598.577 704.165 598.696 703.447 598.669C702.73 598.642 702.026 598.471 701.376 598.165L681.749 589.845C681.103 589.573 680.517 589.175 680.024 588.676C679.532 588.177 679.143 587.585 678.879 586.935C678.616 586.285 678.483 585.59 678.489 584.888C678.494 584.187 678.638 583.494 678.912 582.848H678.933ZM530.752 530.752L493.227 493.227L404.885 619.093L530.731 530.731L530.752 530.752ZM662.848 361.152L538.389 538.389L361.152 662.848L485.611 485.611L662.848 361.152Z" fill="white"/>
</g>
</g>
<defs>
<clipPath id="clip0_37_7">
<rect width="1024" height="1024" fill="white"/>
</clipPath>
<clipPath id="clip1_37_7">
<rect width="512" height="512" fill="white" transform="translate(256 256)"/>
</clipPath>
</defs>
</svg>
