<svg width="1024" height="1024" viewBox="0 0 1024 1024" fill="none" xmlns="http://www.w3.org/2000/svg">
<g clip-path="url(#clip0_37_7)">
<path d="M512 1024C794.77 1024 1024 794.77 1024 512C1024 229.23 794.77 0 512 0C229.23 0 0 229.23 0 512C0 794.77 229.23 1024 512 1024Z" fill="black"/>
<path d="M660.516 281H738.996L566.68 477.201L768 743.353H610.015L486.323 581.614L344.717 743.353H266.237L448.789 533.502L256 281H417.909L529.658 428.748L660.516 281ZM633.048 697.288H676.553L395.047 325.359H348.3L633.048 697.288Z" fill="white"/>
</g>
<defs>
<clipPath id="clip0_37_7">
<rect width="1024" height="1024" fill="white"/>
</clipPath>
</defs>
</svg>
