<svg width="1024" height="1024" viewBox="0 0 1024 1024" fill="none" xmlns="http://www.w3.org/2000/svg">
<g clip-path="url(#clip0_37_7)">
<path d="M512 1024C794.77 1024 1024 794.77 1024 512C1024 229.23 794.77 0 512 0C229.23 0 0 229.23 0 512C0 794.77 229.23 1024 512 1024Z" fill="#7C1919"/>
<path d="M459.635 588.492V436.236L593.455 512.366L459.635 588.492ZM757.3 388.328C751.412 366.156 734.062 348.695 712.034 342.769C672.107 332 511.999 332 511.999 332C511.999 332 351.893 332 311.966 342.769C289.938 348.695 272.588 366.156 266.7 388.328C256 428.515 256 512.364 256 512.364C256 512.364 256 596.209 266.7 636.398C272.588 658.572 289.936 676.031 311.966 681.961C351.893 692.726 511.999 692.726 511.999 692.726C511.999 692.726 672.107 692.726 712.034 681.961C734.062 676.031 751.412 658.572 757.3 636.398C768 596.209 768 512.362 768 512.362C768 512.362 768 428.515 757.3 388.328Z" fill="white"/>
</g>
<defs>
<clipPath id="clip0_37_7">
<rect width="1024" height="1024" fill="white"/>
</clipPath>
</defs>
</svg>
